# xmcd CD database file
#
# Track frame offsets:
#	182
#	14870
#	34682
#	56157
#	84220
#	102270
#	134670
#	147507
#	171357
#	198570
#	210870
#	234845
#	245557
#
# Disc length: 3576 seconds
#
# Revision: 3
# Processed by: cddbd v1.4PL0 Copyright (c) Steve Scherf et al.
# Submitted via: CDex 1.40Beta8
#
DISCID=b90df60d
DTITLE=Glenn Kaiser - Spontaneous Combustion
DYEAR=1994
DGENRE=Blues
TTITLE0=Everybody Understands The Blues
TTITLE1=Trouble
TTITLE2=Through The Night
TTITLE3=Queen Bee
TTITLE4=Shufflin' The Deck
TTITLE5=If I Leave This World Tomorrow
TTITLE6=Ain't Much Difference
TTITLE7=Got A Hold On You
TTITLE8=Where Would I Be
TTITLE9=Jump Start
TTITLE10=Queen Of My Heart
TTITLE11=Satellite Dish
TTITLE12=Spontaneous Combustion
EXTD=YEAR: 1994 ID3G: 0
EXTT0=
EXTT1=
EXTT2=
EXTT3=
EXTT4=
EXTT5=
EXTT6=
EXTT7=
EXTT8=
EXTT9=
EXTT10=
EXTT11=
EXTT12=
PLAYORDER=
